<?xml version="1.0" standalone="no"?>
<!DOCTYPE svg PUBLIC "-//W3C//DTD SVG 20010904//EN"
 "http://www.w3.org/TR/2001/REC-SVG-20010904/DTD/svg10.dtd">
<svg version="1.0" xmlns="http://www.w3.org/2000/svg"
 width="1024.000000pt" height="1024.000000pt" viewBox="0 0 1024.000000 1024.000000"
 preserveAspectRatio="xMidYMid meet">
<metadata>
Created by potrace 1.15, written by Peter Selinger 2001-2017
</metadata>
<g transform="translate(0.000000,1024.000000) scale(0.100000,-0.100000)"
fill="#000000" stroke="none">
<path d="M4955 8319 c-630 -29 -1250 -254 -1757 -636 -642 -485 -1080 -1185
-1227 -1963 -54 -285 -68 -674 -36 -955 85 -738 398 -1389 920 -1910 515 -515
1163 -830 1895 -921 184 -23 567 -23 744 0 388 50 705 144 1033 305 909 446
1545 1275 1742 2266 39 200 55 370 55 610 0 243 -10 364 -50 585 -175 962
-795 1803 -1669 2261 -388 203 -866 337 -1270 354 -66 3 -145 7 -175 8 -30 2
-122 0 -205 -4z m395 -1599 l0 -310 -235 0 -235 0 0 -1285 0 -1285 530 0 530
0 0 350 0 350 375 0 375 0 0 -665 0 -665 -1510 0 -1510 0 0 320 0 320 235 0
235 0 0 1280 0 1280 -235 0 -235 0 0 310 0 310 840 0 840 0 0 -310z"/>
</g>
</svg>
